<?xml version="1.0" encoding="utf-8"?>
<!-- Generator: Adobe Illustrator 26.0.3, SVG Export Plug-In . SVG Version: 6.00 Build 0)  -->
<svg version="1.1" id="Layer_1" xmlns="http://www.w3.org/2000/svg" xmlns:xlink="http://www.w3.org/1999/xlink" x="0px" y="0px"
	 viewBox="0 0 1920 1080" style="enable-background:new 0 0 1920 1080;" xml:space="preserve">
<style type="text/css">
	.st0{fill:#0E086A;}
	.st1{fill:#0E096A;}
	.st2{fill:#0F096A;}
	.st3{fill:#100A6B;}
	.st4{fill:#FDFDFD;}
	.st5{fill:#FCFCFD;}
</style>
<g>
	<path class="st0" d="M278,766.17c-60.77-24.69-120.05-37.99-181.83-34.97c-10.41,0.51-12.33-5.88-13.14-14.71
		c-7.23-78.52-14.47-157.04-21.98-235.53c-0.98-10.25,1.61-13.58,11.8-13.82c67.12-1.61,131.45,13.06,194.54,36.13
		c8.58,3.14,10.83,8.2,10.79,17.48C277.86,601.3,278,681.87,278,766.17z"/>
	<path class="st0" d="M296.47,766.33c0-84.77,0.13-166.7-0.17-248.64c-0.04-10.12,4.34-13.27,12.44-16.13
		c60.16-21.25,121.23-36.1,185.11-35.29c13.54,0.17,19.95,2.01,18.2,19.14c-7.94,77.47-14.92,155.05-22.01,232.61
		c-0.74,8.07-1.93,13.63-11.37,13.15C416.28,727.99,356.45,741.53,296.47,766.33z"/>
	<path class="st1" d="M651.22,542.87c55.36-28.86,101.86-12.31,117.65,40.02c10,33.15,1.28,74.86-21.72,93.79
		c-26.27,21.62-55.08,25.36-85.14,8.12c-4.43-2.54-6.8-7.95-12.34,2.37c-6.24,11.63-21.59,5.48-32.53,4.3
		c-10.95-1.18-5.9-12.82-5.95-19.64c-0.42-60.48,0.45-120.98-0.66-181.43c-0.34-18.41,6.93-19.99,20.95-20.39
		c15.02-0.43,21.54,3.28,20.03,20.74C650.09,507.29,651.22,524.11,651.22,542.87z"/>
	<path class="st0" d="M1759.09,542.28c50.09-23.51,86.53-16,108.82,21.59c18.23,30.75,15.27,78.21-6.57,105.29
		c-21.84,27.07-58.12,33.88-91.4,15.99c-7.53-4.05-7.69-1.37-13.16,4c-8.36,8.21-23.06,4.84-34.03,1.95
		c-8.38-2.21-4.12-13.98-4.16-21.38c-0.32-60.57,0.67-121.16-0.66-181.69c-0.43-19.35,8.94-17.94,20.53-17.58
		c10.8,0.33,22.96-3.54,20.99,16.89C1757.72,505.29,1759.09,523.58,1759.09,542.28z"/>
	<path class="st0" d="M1397.53,542.95c18.07-10.38,35.17-16.95,54.48-13.64c23.85,4.1,39.64,18.79,43.22,44.04
		c5.05,35.61,2.41,71.6,2.28,107.41c-0.07,19.72-15.13,9.89-23.62,11.15c-7.86,1.16-18.69,4.23-18.37-12.07
		c0.53-27.08-0.2-54.2,0.23-81.28c0.31-19.92-7.38-32.78-26.47-33.78c-19.05-1-29.09,11.9-30.26,30.76
		c-1.62,26.19-2.37,52.62-1.04,78.8c0.92,18.28-7.61,19.02-20.04,18.08c-10.48-0.79-21.82,4.06-21.42-16.52
		c1.23-63.73,1.04-127.51,0.09-191.25c-0.28-19.07,10.55-15.35,20.34-15.06c9.34,0.27,21.96-5.08,20.82,14.5
		C1396.67,502.98,1397.53,522,1397.53,542.95z"/>
	<path class="st2" d="M1228.04,599.43c11.93-15.43,22.03-25.16,28.26-37.2c15.37-29.69,38.41-36.86,69.39-29.25
		c-9.34,20.4-24.84,35.95-39.25,51.73c-14.46,15.83-16.23,27.75-0.86,44.72c16.2,17.89,29.2,39.1,43.7,59.02
		c-48.26,21.34-62.78-21.96-85.64-48.32c-7.56,9.26-15.97,15.19-15.94,28.53c0.05,21.04-15.2,30.39-34.14,23.53
		c-7.2-2.61-6.12-8-6.13-13.25c-0.09-65.28,0.1-130.57-0.14-195.85c-0.08-20.6,14.11-11.07,22.41-12.23
		c9.04-1.26,19.27-3.49,18.69,14.13C1227.22,520.76,1228.04,556.62,1228.04,599.43z"/>
	<path class="st2" d="M1678.61,612.03c0,18.35,0.02,36.7,0,55.04c-0.03,23.35-20.75,36.7-38.59,22.3c-7.26-5.86-9.32-4.48-15.4-1.69
		c-47.72,21.88-83.33-0.92-86.71-56.52c-1.74-28.6-0.07-57.42-0.93-86.11c-0.6-19.93,12.64-13.33,21.61-13.74
		c9.56-0.44,21.55-4.57,20.91,14.65c-0.91,27.07,0.29,54.22,0.11,81.34c-0.13,19.51,9,30.44,26.5,31.21
		c17.43,0.76,28.32-9.6,29.29-28.6c1.3-25.44,2.49-51,1.53-76.41c-0.66-17.46,3.31-23.66,20.75-23.11
		c15.53,0.49,23.1,2.56,21.34,21.85C1677.2,572,1678.61,592.09,1678.61,612.03z"/>
	<path class="st0" d="M1070.93,528.55c45.1-0.3,81.39,35.85,82.35,82.03c0.95,46.18-37.01,85.69-81.95,85.28
		c-44.4-0.41-81.14-38.27-81.17-83.66C990.12,566.19,1026.18,528.85,1070.93,528.55z"/>
	<path class="st0" d="M963.33,612.52c-0.67,44.99-38.55,83.63-81.91,83.56c-44.54-0.07-82.66-40.18-81.7-85.99
		c0.95-45.76,38.21-82.5,82.78-81.65C927,529.31,963.99,567.78,963.33,612.52z"/>
	<path class="st3" d="M461.12,420.39c3.72,18.95-6.67,26.9-27.73,28.1c-42.35,2.41-82.92,14.86-123.1,28.85
		c-3.75,1.31-9.19,8.99-13.07,0.81c-2.84-5.97,1.62-10.18,6.11-13.55c44.02-33.06,91.13-58.57,145.01-67.05
		C462.01,395.39,462.1,396.05,461.12,420.39z"/>
	<path class="st3" d="M276.45,481.4c-35.53-10.86-70.3-24.43-106.98-29.56c-13.98-1.96-27.86-5.69-41.86-6.18
		c-12.21-0.43-14.31-6.25-14.24-17.47c0.23-35.63-6.86-35.07,30.03-26.83c46.52,10.39,87.59,34.02,126.39,62.61
		C274.88,467.71,278.92,471.87,276.45,481.4z"/>
	<path class="st4" d="M732.2,610.45c0.18,27.35-16.04,45.56-40.68,45.69c-24.63,0.12-41.38-18.32-41.03-45.17
		c0.35-26.54,17.97-45.65,41.82-45.35C715.1,565.9,732.04,584.94,732.2,610.45z"/>
	<path class="st4" d="M1796.8,656.01c-23.85-0.34-39.37-18-39.09-44.49c0.29-27.48,17.06-45.79,41.16-44.94
		c24.59,0.87,41.29,19.64,40.85,45.93C1839.28,638.91,1822.05,656.37,1796.8,656.01z"/>
	<path class="st4" d="M1071.86,657.49c-23.64,0.03-41.71-20.12-41.41-46.15c0.29-24.92,17.68-44.08,40.42-44.56
		c23.75-0.49,41.92,19.6,41.43,45.83C1111.83,638.29,1094.54,657.47,1071.86,657.49z"/>
	<path class="st5" d="M881.82,566.56c23.34,0.47,41.66,21.42,40.75,46.61c-0.93,25.92-19.93,45.73-42.78,44.63
		c-23.23-1.12-40.82-22.32-39.79-47.94C840.95,585.81,859.98,566.12,881.82,566.56z"/>
</g>
</svg>
